<?xml version="1.0" encoding="utf-8"?>
<!-- Generator: Adobe Illustrator 27.1.0, SVG Export Plug-In . SVG Version: 6.00 Build 0)  -->
<svg version="1.1" id="Capa_1" xmlns="http://www.w3.org/2000/svg" xmlns:xlink="http://www.w3.org/1999/xlink" x="0px" y="0px"
	 viewBox="0 0 612 1231.39" style="enable-background:new 0 0 612 1231.39;" xml:space="preserve">
<style type="text/css">
	.st0{fill:#1D1D1B;}
</style>
<g>
	<g>
		<path class="st0" d="M80.69,57.46c2.85,0,5.15,3.06,5.15,6.83v803.4c0,3.77-2.31,6.83-5.15,6.83c-2.85,0-5.15-3.06-5.15-6.83
			V64.29C75.54,60.52,77.85,57.46,80.69,57.46z"/>
	</g>
	<g>
		<path class="st0" d="M141,60.19c1.71,0,3.09,2.18,3.09,4.87v331.28c0,2.69-1.39,4.87-3.09,4.87c-1.71,0-3.09-2.18-3.09-4.87V65.07
			C137.9,62.37,139.29,60.19,141,60.19z"/>
	</g>
</g>
<g>
	<g>
		<path class="st0" d="M351.07,477.57c-2.58,0-5.08-1.39-6.38-3.83l-38.8-73.04h-37.73v69.65c0,3.99-3.23,7.22-7.22,7.22
			c-3.98,0-7.22-3.23-7.22-7.22v-76.87c0-3.99,3.23-7.22,7.22-7.22h37.28l-43.65-82.17c-1.19-2.24-1.12-4.93,0.19-7.1
			c1.3-2.17,3.65-3.5,6.18-3.5h41.53c19.1,0,47.85,14.11,48.73,53c0.67,29.57-16.03,44.51-30.83,50.72l37.06,69.76
			c1.87,3.52,0.53,7.89-2.99,9.76C353.37,477.3,352.21,477.57,351.07,477.57z M272.94,307.93l40.62,76.46
			c9.37-3.46,23.78-12.82,23.22-37.57c-0.87-38.45-32.94-38.89-34.3-38.89H272.94z"/>
	</g>
	<g>
		<path class="st0" d="M264.46,735.86c-3.98,0-7.22-3.23-7.22-7.22v-76.87c0-3.99,3.23-7.22,7.22-7.22h45.46
			c4.51-0.66,31.14-5.97,30.37-39.45c-0.87-38.45-32.94-38.89-34.3-38.89h-41.53c-3.98,0-7.22-3.23-7.22-7.22
			c0-3.99,3.23-7.22,7.22-7.22H306c19.1,0,47.85,14.11,48.73,53c0.88,38.74-28.06,52.37-43.49,54.16c-0.28,0.03-0.55,0.05-0.83,0.05
			h-38.73v69.65C271.68,732.63,268.45,735.86,264.46,735.86z"/>
	</g>
	<g>
		<path class="st0" d="M311.74,966.17c-0.06,0-0.13,0-0.19,0c-44.32-1.19-59.51-52.02-61.35-78.73c-0.01-0.17-0.02-0.33-0.02-0.5
			l0.01-27.39c-0.5-32.92,27.01-74.79,59.84-76.56c37.29-2,50.6,26.88,51.15,28.11c1.63,3.64,0,7.91-3.64,9.53
			c-3.62,1.62-7.88,0.01-9.52-3.6c-0.46-0.98-10.18-21.12-37.22-19.63c-23.81,1.29-46.57,36.61-46.19,62.04l-0.01,27.21
			c0.35,4.04,6.21,63.63,46.95,65.07c2.63-0.24,24.63-2.76,34.04-19.31v-51.73h-46.24c-3.98,0-7.22-3.23-7.22-7.22
			c0-3.99,3.23-7.22,7.22-7.22h53.46c3.98,0,7.22,3.23,7.22,7.22v60.75c0,1.12-0.26,2.22-0.76,3.23
			c-13.2,26.4-45.73,28.63-47.11,28.71C312.03,966.17,311.89,966.17,311.74,966.17z"/>
	</g>
</g>
<g>
	<g>
		<path class="st0" d="M531.31,1179.95c-2.85,0-5.15-3.06-5.15-6.83v-803.4c0-3.77,2.31-6.83,5.15-6.83c2.85,0,5.15,3.06,5.15,6.83
			v803.4C536.46,1176.89,534.15,1179.95,531.31,1179.95z"/>
	</g>
	<g>
		<path class="st0" d="M471,1177.22c-1.71,0-3.09-2.18-3.09-4.87V841.07c0-2.69,1.39-4.87,3.09-4.87s3.09,2.18,3.09,4.87v331.28
			C474.1,1175.04,472.71,1177.22,471,1177.22z"/>
	</g>
</g>
</svg>
